<mxfile host="Electron" agent="Mozilla/5.0 (Macintosh; Intel Mac OS X 10_15_7) AppleWebKit/537.36 (KHTML, like Gecko) draw.io/28.0.6 Chrome/138.0.7204.100 Electron/37.2.3 Safari/537.36" version="28.0.6">
  <diagram name="1-simple_architecture" id="_O8doer5w9DEbwAqKfuB">
    <mxGraphModel dx="1783" dy="1074" grid="1" gridSize="10" guides="1" tooltips="1" connect="1" arrows="1" fold="1" page="1" pageScale="1" pageWidth="827" pageHeight="1169" math="0" shadow="0">
      <root>
        <mxCell id="0" />
        <mxCell id="1" parent="0" />
        <mxCell id="r_6EXhJBVoEgkkr1cg0a-10" value="&lt;font style=&quot;color: rgb(0, 0, 0);&quot;&gt;VPC&lt;/font&gt;&lt;div&gt;&lt;font style=&quot;color: rgb(0, 0, 0);&quot;&gt;(Production)&lt;/font&gt;&lt;/div&gt;" style="points=[[0,0],[0.25,0],[0.5,0],[0.75,0],[1,0],[1,0.25],[1,0.5],[1,0.75],[1,1],[0.75,1],[0.5,1],[0.25,1],[0,1],[0,0.75],[0,0.5],[0,0.25]];outlineConnect=0;gradientColor=none;html=1;whiteSpace=wrap;fontSize=12;fontStyle=0;container=1;pointerEvents=0;collapsible=0;recursiveResize=0;shape=mxgraph.aws4.group;grIcon=mxgraph.aws4.group_vpc2;strokeColor=#8C4FFF;fillColor=none;verticalAlign=top;align=left;spacingLeft=30;fontColor=#AAB7B8;dashed=0;" vertex="1" parent="1">
          <mxGeometry x="140" y="110" width="130" height="130" as="geometry" />
        </mxCell>
        <mxCell id="r_6EXhJBVoEgkkr1cg0a-11" value="&lt;font style=&quot;color: rgb(0, 0, 0);&quot;&gt;VPC&lt;/font&gt;&lt;div&gt;&lt;font style=&quot;color: rgb(0, 0, 0);&quot;&gt;Development&lt;/font&gt;&lt;/div&gt;" style="points=[[0,0],[0.25,0],[0.5,0],[0.75,0],[1,0],[1,0.25],[1,0.5],[1,0.75],[1,1],[0.75,1],[0.5,1],[0.25,1],[0,1],[0,0.75],[0,0.5],[0,0.25]];outlineConnect=0;gradientColor=none;html=1;whiteSpace=wrap;fontSize=12;fontStyle=0;container=1;pointerEvents=0;collapsible=0;recursiveResize=0;shape=mxgraph.aws4.group;grIcon=mxgraph.aws4.group_vpc2;strokeColor=#8C4FFF;fillColor=none;verticalAlign=top;align=left;spacingLeft=30;fontColor=#AAB7B8;dashed=0;" vertex="1" parent="1">
          <mxGeometry x="292" y="110" width="130" height="130" as="geometry" />
        </mxCell>
        <mxCell id="r_6EXhJBVoEgkkr1cg0a-12" value="&lt;font style=&quot;color: rgb(0, 0, 0);&quot;&gt;VPC&lt;/font&gt;&lt;div&gt;&lt;font style=&quot;color: rgb(0, 0, 0);&quot;&gt;(Shared)&lt;/font&gt;&lt;/div&gt;" style="points=[[0,0],[0.25,0],[0.5,0],[0.75,0],[1,0],[1,0.25],[1,0.5],[1,0.75],[1,1],[0.75,1],[0.5,1],[0.25,1],[0,1],[0,0.75],[0,0.5],[0,0.25]];outlineConnect=0;gradientColor=none;html=1;whiteSpace=wrap;fontSize=12;fontStyle=0;container=1;pointerEvents=0;collapsible=0;recursiveResize=0;shape=mxgraph.aws4.group;grIcon=mxgraph.aws4.group_vpc2;strokeColor=#8C4FFF;fillColor=none;verticalAlign=top;align=left;spacingLeft=30;fontColor=#AAB7B8;dashed=0;" vertex="1" parent="1">
          <mxGeometry x="440" y="110" width="130" height="130" as="geometry" />
        </mxCell>
        <mxCell id="r_6EXhJBVoEgkkr1cg0a-17" value="Region 1 (eu-west-1)" style="points=[[0,0],[0.25,0],[0.5,0],[0.75,0],[1,0],[1,0.25],[1,0.5],[1,0.75],[1,1],[0.75,1],[0.5,1],[0.25,1],[0,1],[0,0.75],[0,0.5],[0,0.25]];outlineConnect=0;gradientColor=none;html=1;whiteSpace=wrap;fontSize=12;fontStyle=0;container=1;pointerEvents=0;collapsible=0;recursiveResize=0;shape=mxgraph.aws4.group;grIcon=mxgraph.aws4.group_region;strokeColor=#00A4A6;fillColor=none;verticalAlign=top;align=left;spacingLeft=30;fontColor=#147EBA;dashed=1;" vertex="1" parent="1">
          <mxGeometry x="110" y="70" width="500" height="550" as="geometry" />
        </mxCell>
        <mxCell id="r_6EXhJBVoEgkkr1cg0a-18" value="Region 2 (us-east-1)" style="points=[[0,0],[0.25,0],[0.5,0],[0.75,0],[1,0],[1,0.25],[1,0.5],[1,0.75],[1,1],[0.75,1],[0.5,1],[0.25,1],[0,1],[0,0.75],[0,0.5],[0,0.25]];outlineConnect=0;gradientColor=none;html=1;whiteSpace=wrap;fontSize=12;fontStyle=0;container=1;pointerEvents=0;collapsible=0;recursiveResize=0;shape=mxgraph.aws4.group;grIcon=mxgraph.aws4.group_region;strokeColor=#00A4A6;fillColor=none;verticalAlign=top;align=left;spacingLeft=30;fontColor=#147EBA;dashed=1;" vertex="1" parent="1">
          <mxGeometry x="620" y="70" width="490" height="550" as="geometry" />
        </mxCell>
        <mxCell id="r_6EXhJBVoEgkkr1cg0a-13" value="&lt;font style=&quot;color: rgb(0, 0, 0);&quot;&gt;VPC&lt;/font&gt;&lt;div&gt;&lt;font style=&quot;color: rgb(0, 0, 0);&quot;&gt;(Production)&lt;/font&gt;&lt;/div&gt;" style="points=[[0,0],[0.25,0],[0.5,0],[0.75,0],[1,0],[1,0.25],[1,0.5],[1,0.75],[1,1],[0.75,1],[0.5,1],[0.25,1],[0,1],[0,0.75],[0,0.5],[0,0.25]];outlineConnect=0;gradientColor=none;html=1;whiteSpace=wrap;fontSize=12;fontStyle=0;container=1;pointerEvents=0;collapsible=0;recursiveResize=0;shape=mxgraph.aws4.group;grIcon=mxgraph.aws4.group_vpc2;strokeColor=#8C4FFF;fillColor=none;verticalAlign=top;align=left;spacingLeft=30;fontColor=#AAB7B8;dashed=0;" vertex="1" parent="r_6EXhJBVoEgkkr1cg0a-18">
          <mxGeometry x="35" y="40" width="130" height="130" as="geometry" />
        </mxCell>
        <mxCell id="r_6EXhJBVoEgkkr1cg0a-14" value="&lt;font style=&quot;color: rgb(0, 0, 0);&quot;&gt;VPC&lt;/font&gt;&lt;div&gt;&lt;font style=&quot;color: rgb(0, 0, 0);&quot;&gt;Development&lt;/font&gt;&lt;/div&gt;" style="points=[[0,0],[0.25,0],[0.5,0],[0.75,0],[1,0],[1,0.25],[1,0.5],[1,0.75],[1,1],[0.75,1],[0.5,1],[0.25,1],[0,1],[0,0.75],[0,0.5],[0,0.25]];outlineConnect=0;gradientColor=none;html=1;whiteSpace=wrap;fontSize=12;fontStyle=0;container=1;pointerEvents=0;collapsible=0;recursiveResize=0;shape=mxgraph.aws4.group;grIcon=mxgraph.aws4.group_vpc2;strokeColor=#8C4FFF;fillColor=none;verticalAlign=top;align=left;spacingLeft=30;fontColor=#AAB7B8;dashed=0;" vertex="1" parent="r_6EXhJBVoEgkkr1cg0a-18">
          <mxGeometry x="187" y="40" width="130" height="130" as="geometry" />
        </mxCell>
        <mxCell id="r_6EXhJBVoEgkkr1cg0a-15" value="&lt;font style=&quot;color: rgb(0, 0, 0);&quot;&gt;VPC&lt;/font&gt;&lt;div&gt;&lt;font style=&quot;color: rgb(0, 0, 0);&quot;&gt;(Shared)&lt;/font&gt;&lt;/div&gt;" style="points=[[0,0],[0.25,0],[0.5,0],[0.75,0],[1,0],[1,0.25],[1,0.5],[1,0.75],[1,1],[0.75,1],[0.5,1],[0.25,1],[0,1],[0,0.75],[0,0.5],[0,0.25]];outlineConnect=0;gradientColor=none;html=1;whiteSpace=wrap;fontSize=12;fontStyle=0;container=1;pointerEvents=0;collapsible=0;recursiveResize=0;shape=mxgraph.aws4.group;grIcon=mxgraph.aws4.group_vpc2;strokeColor=#8C4FFF;fillColor=none;verticalAlign=top;align=left;spacingLeft=30;fontColor=#AAB7B8;dashed=0;" vertex="1" parent="r_6EXhJBVoEgkkr1cg0a-18">
          <mxGeometry x="335" y="40" width="130" height="130" as="geometry" />
        </mxCell>
        <mxCell id="r_6EXhJBVoEgkkr1cg0a-2" value="" style="rounded=0;whiteSpace=wrap;html=1;fillColor=none;strokeWidth=2;strokeColor=#9933FF;" vertex="1" parent="r_6EXhJBVoEgkkr1cg0a-18">
          <mxGeometry x="-530" y="200" width="1060" height="330" as="geometry" />
        </mxCell>
        <mxCell id="r_6EXhJBVoEgkkr1cg0a-3" value="" style="sketch=0;points=[[0,0,0],[0.25,0,0],[0.5,0,0],[0.75,0,0],[1,0,0],[0,1,0],[0.25,1,0],[0.5,1,0],[0.75,1,0],[1,1,0],[0,0.25,0],[0,0.5,0],[0,0.75,0],[1,0.25,0],[1,0.5,0],[1,0.75,0]];outlineConnect=0;fontColor=#232F3E;fillColor=#8C4FFF;strokeColor=#ffffff;dashed=0;verticalLabelPosition=bottom;verticalAlign=top;align=center;html=1;fontSize=12;fontStyle=0;aspect=fixed;shape=mxgraph.aws4.resourceIcon;resIcon=mxgraph.aws4.cloud_wan;" vertex="1" parent="r_6EXhJBVoEgkkr1cg0a-18">
          <mxGeometry x="-530" y="200" width="60" height="60" as="geometry" />
        </mxCell>
        <mxCell id="r_6EXhJBVoEgkkr1cg0a-4" value="&lt;font style=&quot;font-size: 16px;&quot;&gt;&lt;b&gt;AWS Cloud WAN&lt;/b&gt;&lt;/font&gt;" style="text;html=1;align=center;verticalAlign=middle;whiteSpace=wrap;rounded=0;" vertex="1" parent="r_6EXhJBVoEgkkr1cg0a-18">
          <mxGeometry x="-480" y="215" width="170" height="30" as="geometry" />
        </mxCell>
        <mxCell id="r_6EXhJBVoEgkkr1cg0a-5" value="&lt;font style=&quot;font-size: 16px;&quot;&gt;&lt;b&gt;production&lt;/b&gt;&lt;/font&gt;" style="rounded=1;whiteSpace=wrap;html=1;fillColor=#f8cecc;strokeColor=#b85450;" vertex="1" parent="r_6EXhJBVoEgkkr1cg0a-18">
          <mxGeometry x="-520" y="280" width="1030" height="40" as="geometry" />
        </mxCell>
        <mxCell id="r_6EXhJBVoEgkkr1cg0a-6" value="&lt;font style=&quot;font-size: 16px;&quot;&gt;&lt;b&gt;development&lt;/b&gt;&lt;/font&gt;" style="rounded=1;whiteSpace=wrap;html=1;fillColor=#d5e8d4;strokeColor=#82b366;" vertex="1" parent="r_6EXhJBVoEgkkr1cg0a-18">
          <mxGeometry x="-520" y="330" width="1030" height="40" as="geometry" />
        </mxCell>
        <mxCell id="r_6EXhJBVoEgkkr1cg0a-7" value="&lt;font style=&quot;font-size: 16px;&quot;&gt;&lt;b&gt;shared&lt;/b&gt;&lt;/font&gt;" style="rounded=1;whiteSpace=wrap;html=1;fillColor=#dae8fc;strokeColor=#6c8ebf;" vertex="1" parent="r_6EXhJBVoEgkkr1cg0a-18">
          <mxGeometry x="-520" y="380" width="1030" height="40" as="geometry" />
        </mxCell>
        <mxCell id="r_6EXhJBVoEgkkr1cg0a-8" value="Core network edge" style="sketch=0;outlineConnect=0;fontColor=#232F3E;gradientColor=none;fillColor=#8C4FFF;strokeColor=none;dashed=0;verticalLabelPosition=bottom;verticalAlign=top;align=center;html=1;fontSize=12;fontStyle=0;aspect=fixed;pointerEvents=1;shape=mxgraph.aws4.cloud_wan_virtual_pop;" vertex="1" parent="r_6EXhJBVoEgkkr1cg0a-18">
          <mxGeometry x="-285" y="440" width="50" height="50" as="geometry" />
        </mxCell>
        <mxCell id="r_6EXhJBVoEgkkr1cg0a-9" value="Core network edge" style="sketch=0;outlineConnect=0;fontColor=#232F3E;gradientColor=none;fillColor=#8C4FFF;strokeColor=none;dashed=0;verticalLabelPosition=bottom;verticalAlign=top;align=center;html=1;fontSize=12;fontStyle=0;aspect=fixed;pointerEvents=1;shape=mxgraph.aws4.cloud_wan_virtual_pop;" vertex="1" parent="r_6EXhJBVoEgkkr1cg0a-18">
          <mxGeometry x="225" y="440" width="50" height="50" as="geometry" />
        </mxCell>
        <mxCell id="r_6EXhJBVoEgkkr1cg0a-22" style="edgeStyle=orthogonalEdgeStyle;rounded=0;orthogonalLoop=1;jettySize=auto;html=1;exitX=0.5;exitY=1;exitDx=0;exitDy=0;entryX=0.602;entryY=0.05;entryDx=0;entryDy=0;entryPerimeter=0;fillColor=#f8cecc;strokeColor=#b85450;strokeWidth=2;endArrow=none;endFill=0;" edge="1" parent="r_6EXhJBVoEgkkr1cg0a-18" source="r_6EXhJBVoEgkkr1cg0a-13" target="r_6EXhJBVoEgkkr1cg0a-5">
          <mxGeometry relative="1" as="geometry" />
        </mxCell>
        <mxCell id="r_6EXhJBVoEgkkr1cg0a-23" style="edgeStyle=orthogonalEdgeStyle;rounded=0;orthogonalLoop=1;jettySize=auto;html=1;exitX=0.5;exitY=1;exitDx=0;exitDy=0;entryX=0.75;entryY=0;entryDx=0;entryDy=0;fillColor=#d5e8d4;strokeColor=#82b366;strokeWidth=2;endArrow=none;endFill=0;" edge="1" parent="r_6EXhJBVoEgkkr1cg0a-18" source="r_6EXhJBVoEgkkr1cg0a-14" target="r_6EXhJBVoEgkkr1cg0a-6">
          <mxGeometry relative="1" as="geometry" />
        </mxCell>
        <mxCell id="r_6EXhJBVoEgkkr1cg0a-24" style="edgeStyle=orthogonalEdgeStyle;rounded=0;orthogonalLoop=1;jettySize=auto;html=1;exitX=0.5;exitY=1;exitDx=0;exitDy=0;entryX=0.893;entryY=0;entryDx=0;entryDy=0;entryPerimeter=0;fillColor=#dae8fc;strokeColor=#6c8ebf;strokeWidth=2;endArrow=none;endFill=0;" edge="1" parent="r_6EXhJBVoEgkkr1cg0a-18" source="r_6EXhJBVoEgkkr1cg0a-15" target="r_6EXhJBVoEgkkr1cg0a-7">
          <mxGeometry relative="1" as="geometry" />
        </mxCell>
        <mxCell id="r_6EXhJBVoEgkkr1cg0a-19" style="edgeStyle=orthogonalEdgeStyle;rounded=0;orthogonalLoop=1;jettySize=auto;html=1;entryX=0.102;entryY=0.05;entryDx=0;entryDy=0;entryPerimeter=0;fillColor=#f8cecc;strokeColor=#b85450;strokeWidth=2;endArrow=none;endFill=0;" edge="1" parent="1" source="r_6EXhJBVoEgkkr1cg0a-10" target="r_6EXhJBVoEgkkr1cg0a-5">
          <mxGeometry relative="1" as="geometry" />
        </mxCell>
        <mxCell id="r_6EXhJBVoEgkkr1cg0a-20" style="edgeStyle=orthogonalEdgeStyle;rounded=0;orthogonalLoop=1;jettySize=auto;html=1;exitX=0.5;exitY=1;exitDx=0;exitDy=0;entryX=0.25;entryY=0;entryDx=0;entryDy=0;strokeWidth=2;fillColor=#d5e8d4;strokeColor=#82b366;endArrow=none;endFill=0;" edge="1" parent="1" source="r_6EXhJBVoEgkkr1cg0a-11" target="r_6EXhJBVoEgkkr1cg0a-6">
          <mxGeometry relative="1" as="geometry" />
        </mxCell>
        <mxCell id="r_6EXhJBVoEgkkr1cg0a-21" style="edgeStyle=orthogonalEdgeStyle;rounded=0;orthogonalLoop=1;jettySize=auto;html=1;exitX=0.5;exitY=1;exitDx=0;exitDy=0;entryX=0.393;entryY=0.075;entryDx=0;entryDy=0;entryPerimeter=0;fillColor=#dae8fc;strokeColor=#6c8ebf;strokeWidth=2;endArrow=none;endFill=0;" edge="1" parent="1" source="r_6EXhJBVoEgkkr1cg0a-12" target="r_6EXhJBVoEgkkr1cg0a-7">
          <mxGeometry relative="1" as="geometry" />
        </mxCell>
        <mxCell id="r_6EXhJBVoEgkkr1cg0a-25" value="Routing behaviour" style="shape=table;startSize=30;container=1;collapsible=0;childLayout=tableLayout;strokeColor=#314354;fontSize=16;fillColor=#647687;fontColor=#ffffff;" vertex="1" parent="1">
          <mxGeometry x="370" y="650" width="493" height="243" as="geometry" />
        </mxCell>
        <mxCell id="r_6EXhJBVoEgkkr1cg0a-26" value="" style="shape=tableRow;horizontal=0;startSize=0;swimlaneHead=0;swimlaneBody=0;strokeColor=inherit;top=0;left=0;bottom=0;right=0;collapsible=0;dropTarget=0;fillColor=none;points=[[0,0.5],[1,0.5]];portConstraint=eastwest;fontSize=16;" vertex="1" parent="r_6EXhJBVoEgkkr1cg0a-25">
          <mxGeometry y="30" width="493" height="53" as="geometry" />
        </mxCell>
        <mxCell id="r_6EXhJBVoEgkkr1cg0a-27" value="" style="shape=partialRectangle;html=1;whiteSpace=wrap;connectable=0;strokeColor=inherit;overflow=hidden;fillColor=none;top=0;left=0;bottom=0;right=0;pointerEvents=1;fontSize=16;" vertex="1" parent="r_6EXhJBVoEgkkr1cg0a-26">
          <mxGeometry width="123" height="53" as="geometry">
            <mxRectangle width="123" height="53" as="alternateBounds" />
          </mxGeometry>
        </mxCell>
        <mxCell id="r_6EXhJBVoEgkkr1cg0a-28" value="Production" style="shape=partialRectangle;html=1;whiteSpace=wrap;connectable=0;strokeColor=inherit;overflow=hidden;fillColor=none;top=0;left=0;bottom=0;right=0;pointerEvents=1;fontSize=16;" vertex="1" parent="r_6EXhJBVoEgkkr1cg0a-26">
          <mxGeometry x="123" width="124" height="53" as="geometry">
            <mxRectangle width="124" height="53" as="alternateBounds" />
          </mxGeometry>
        </mxCell>
        <mxCell id="r_6EXhJBVoEgkkr1cg0a-29" value="Development" style="shape=partialRectangle;html=1;whiteSpace=wrap;connectable=0;strokeColor=inherit;overflow=hidden;fillColor=none;top=0;left=0;bottom=0;right=0;pointerEvents=1;fontSize=16;" vertex="1" parent="r_6EXhJBVoEgkkr1cg0a-26">
          <mxGeometry x="247" width="123" height="53" as="geometry">
            <mxRectangle width="123" height="53" as="alternateBounds" />
          </mxGeometry>
        </mxCell>
        <mxCell id="r_6EXhJBVoEgkkr1cg0a-46" value="Shared" style="shape=partialRectangle;html=1;whiteSpace=wrap;connectable=0;strokeColor=inherit;overflow=hidden;fillColor=none;top=0;left=0;bottom=0;right=0;pointerEvents=1;fontSize=16;" vertex="1" parent="r_6EXhJBVoEgkkr1cg0a-26">
          <mxGeometry x="370" width="123" height="53" as="geometry">
            <mxRectangle width="123" height="53" as="alternateBounds" />
          </mxGeometry>
        </mxCell>
        <mxCell id="r_6EXhJBVoEgkkr1cg0a-30" value="" style="shape=tableRow;horizontal=0;startSize=0;swimlaneHead=0;swimlaneBody=0;strokeColor=inherit;top=0;left=0;bottom=0;right=0;collapsible=0;dropTarget=0;fillColor=none;points=[[0,0.5],[1,0.5]];portConstraint=eastwest;fontSize=16;" vertex="1" parent="r_6EXhJBVoEgkkr1cg0a-25">
          <mxGeometry y="83" width="493" height="54" as="geometry" />
        </mxCell>
        <mxCell id="r_6EXhJBVoEgkkr1cg0a-31" value="Production" style="shape=partialRectangle;html=1;whiteSpace=wrap;connectable=0;strokeColor=inherit;overflow=hidden;fillColor=none;top=0;left=0;bottom=0;right=0;pointerEvents=1;fontSize=16;" vertex="1" parent="r_6EXhJBVoEgkkr1cg0a-30">
          <mxGeometry width="123" height="54" as="geometry">
            <mxRectangle width="123" height="54" as="alternateBounds" />
          </mxGeometry>
        </mxCell>
        <mxCell id="r_6EXhJBVoEgkkr1cg0a-32" value="" style="shape=partialRectangle;html=1;whiteSpace=wrap;connectable=0;strokeColor=inherit;overflow=hidden;fillColor=none;top=0;left=0;bottom=0;right=0;pointerEvents=1;fontSize=16;" vertex="1" parent="r_6EXhJBVoEgkkr1cg0a-30">
          <mxGeometry x="123" width="124" height="54" as="geometry">
            <mxRectangle width="124" height="54" as="alternateBounds" />
          </mxGeometry>
        </mxCell>
        <mxCell id="r_6EXhJBVoEgkkr1cg0a-33" value="" style="shape=partialRectangle;html=1;whiteSpace=wrap;connectable=0;strokeColor=inherit;overflow=hidden;fillColor=none;top=0;left=0;bottom=0;right=0;pointerEvents=1;fontSize=16;" vertex="1" parent="r_6EXhJBVoEgkkr1cg0a-30">
          <mxGeometry x="247" width="123" height="54" as="geometry">
            <mxRectangle width="123" height="54" as="alternateBounds" />
          </mxGeometry>
        </mxCell>
        <mxCell id="r_6EXhJBVoEgkkr1cg0a-47" style="shape=partialRectangle;html=1;whiteSpace=wrap;connectable=0;strokeColor=inherit;overflow=hidden;fillColor=none;top=0;left=0;bottom=0;right=0;pointerEvents=1;fontSize=16;" vertex="1" parent="r_6EXhJBVoEgkkr1cg0a-30">
          <mxGeometry x="370" width="123" height="54" as="geometry">
            <mxRectangle width="123" height="54" as="alternateBounds" />
          </mxGeometry>
        </mxCell>
        <mxCell id="r_6EXhJBVoEgkkr1cg0a-34" value="" style="shape=tableRow;horizontal=0;startSize=0;swimlaneHead=0;swimlaneBody=0;strokeColor=inherit;top=0;left=0;bottom=0;right=0;collapsible=0;dropTarget=0;fillColor=none;points=[[0,0.5],[1,0.5]];portConstraint=eastwest;fontSize=16;" vertex="1" parent="r_6EXhJBVoEgkkr1cg0a-25">
          <mxGeometry y="137" width="493" height="53" as="geometry" />
        </mxCell>
        <mxCell id="r_6EXhJBVoEgkkr1cg0a-35" value="Development" style="shape=partialRectangle;html=1;whiteSpace=wrap;connectable=0;strokeColor=inherit;overflow=hidden;fillColor=none;top=0;left=0;bottom=0;right=0;pointerEvents=1;fontSize=16;" vertex="1" parent="r_6EXhJBVoEgkkr1cg0a-34">
          <mxGeometry width="123" height="53" as="geometry">
            <mxRectangle width="123" height="53" as="alternateBounds" />
          </mxGeometry>
        </mxCell>
        <mxCell id="r_6EXhJBVoEgkkr1cg0a-36" value="" style="shape=partialRectangle;html=1;whiteSpace=wrap;connectable=0;strokeColor=inherit;overflow=hidden;fillColor=none;top=0;left=0;bottom=0;right=0;pointerEvents=1;fontSize=16;" vertex="1" parent="r_6EXhJBVoEgkkr1cg0a-34">
          <mxGeometry x="123" width="124" height="53" as="geometry">
            <mxRectangle width="124" height="53" as="alternateBounds" />
          </mxGeometry>
        </mxCell>
        <mxCell id="r_6EXhJBVoEgkkr1cg0a-37" value="" style="shape=partialRectangle;html=1;whiteSpace=wrap;connectable=0;strokeColor=inherit;overflow=hidden;fillColor=none;top=0;left=0;bottom=0;right=0;pointerEvents=1;fontSize=16;" vertex="1" parent="r_6EXhJBVoEgkkr1cg0a-34">
          <mxGeometry x="247" width="123" height="53" as="geometry">
            <mxRectangle width="123" height="53" as="alternateBounds" />
          </mxGeometry>
        </mxCell>
        <mxCell id="r_6EXhJBVoEgkkr1cg0a-48" style="shape=partialRectangle;html=1;whiteSpace=wrap;connectable=0;strokeColor=inherit;overflow=hidden;fillColor=none;top=0;left=0;bottom=0;right=0;pointerEvents=1;fontSize=16;" vertex="1" parent="r_6EXhJBVoEgkkr1cg0a-34">
          <mxGeometry x="370" width="123" height="53" as="geometry">
            <mxRectangle width="123" height="53" as="alternateBounds" />
          </mxGeometry>
        </mxCell>
        <mxCell id="r_6EXhJBVoEgkkr1cg0a-38" style="shape=tableRow;horizontal=0;startSize=0;swimlaneHead=0;swimlaneBody=0;strokeColor=inherit;top=0;left=0;bottom=0;right=0;collapsible=0;dropTarget=0;fillColor=none;points=[[0,0.5],[1,0.5]];portConstraint=eastwest;fontSize=16;" vertex="1" parent="r_6EXhJBVoEgkkr1cg0a-25">
          <mxGeometry y="190" width="493" height="53" as="geometry" />
        </mxCell>
        <mxCell id="r_6EXhJBVoEgkkr1cg0a-39" value="Shared" style="shape=partialRectangle;html=1;whiteSpace=wrap;connectable=0;strokeColor=inherit;overflow=hidden;fillColor=none;top=0;left=0;bottom=0;right=0;pointerEvents=1;fontSize=16;" vertex="1" parent="r_6EXhJBVoEgkkr1cg0a-38">
          <mxGeometry width="123" height="53" as="geometry">
            <mxRectangle width="123" height="53" as="alternateBounds" />
          </mxGeometry>
        </mxCell>
        <mxCell id="r_6EXhJBVoEgkkr1cg0a-40" style="shape=partialRectangle;html=1;whiteSpace=wrap;connectable=0;strokeColor=inherit;overflow=hidden;fillColor=none;top=0;left=0;bottom=0;right=0;pointerEvents=1;fontSize=16;" vertex="1" parent="r_6EXhJBVoEgkkr1cg0a-38">
          <mxGeometry x="123" width="124" height="53" as="geometry">
            <mxRectangle width="124" height="53" as="alternateBounds" />
          </mxGeometry>
        </mxCell>
        <mxCell id="r_6EXhJBVoEgkkr1cg0a-41" style="shape=partialRectangle;html=1;whiteSpace=wrap;connectable=0;strokeColor=inherit;overflow=hidden;fillColor=none;top=0;left=0;bottom=0;right=0;pointerEvents=1;fontSize=16;" vertex="1" parent="r_6EXhJBVoEgkkr1cg0a-38">
          <mxGeometry x="247" width="123" height="53" as="geometry">
            <mxRectangle width="123" height="53" as="alternateBounds" />
          </mxGeometry>
        </mxCell>
        <mxCell id="r_6EXhJBVoEgkkr1cg0a-49" style="shape=partialRectangle;html=1;whiteSpace=wrap;connectable=0;strokeColor=inherit;overflow=hidden;fillColor=none;top=0;left=0;bottom=0;right=0;pointerEvents=1;fontSize=16;" vertex="1" parent="r_6EXhJBVoEgkkr1cg0a-38">
          <mxGeometry x="370" width="123" height="53" as="geometry">
            <mxRectangle width="123" height="53" as="alternateBounds" />
          </mxGeometry>
        </mxCell>
        <mxCell id="r_6EXhJBVoEgkkr1cg0a-50" value="" style="verticalLabelPosition=bottom;verticalAlign=top;html=1;shape=mxgraph.basic.tick;fillColor=#008a00;fontColor=#ffffff;strokeColor=#005700;" vertex="1" parent="1">
          <mxGeometry x="656" y="795" width="40" height="40" as="geometry" />
        </mxCell>
        <mxCell id="r_6EXhJBVoEgkkr1cg0a-52" value="" style="verticalLabelPosition=bottom;verticalAlign=top;html=1;shape=mxgraph.basic.tick;fillColor=#008a00;fontColor=#ffffff;strokeColor=#005700;" vertex="1" parent="1">
          <mxGeometry x="780" y="795" width="40" height="40" as="geometry" />
        </mxCell>
        <mxCell id="r_6EXhJBVoEgkkr1cg0a-53" value="" style="verticalLabelPosition=bottom;verticalAlign=top;html=1;shape=mxgraph.basic.tick;fillColor=#008a00;fontColor=#ffffff;strokeColor=#005700;" vertex="1" parent="1">
          <mxGeometry x="780" y="740" width="40" height="40" as="geometry" />
        </mxCell>
        <mxCell id="r_6EXhJBVoEgkkr1cg0a-54" value="" style="verticalLabelPosition=bottom;verticalAlign=top;html=1;shape=mxgraph.basic.tick;fillColor=#008a00;fontColor=#ffffff;strokeColor=#005700;" vertex="1" parent="1">
          <mxGeometry x="534" y="846" width="40" height="40" as="geometry" />
        </mxCell>
        <mxCell id="r_6EXhJBVoEgkkr1cg0a-55" value="" style="verticalLabelPosition=bottom;verticalAlign=top;html=1;shape=mxgraph.basic.tick;fillColor=#008a00;fontColor=#ffffff;strokeColor=#005700;" vertex="1" parent="1">
          <mxGeometry x="655" y="847" width="40" height="40" as="geometry" />
        </mxCell>
        <mxCell id="r_6EXhJBVoEgkkr1cg0a-56" value="" style="shape=cross;whiteSpace=wrap;html=1;rotation=45;fillColor=#a20025;fontColor=#ffffff;strokeColor=#6F0000;" vertex="1" parent="1">
          <mxGeometry x="534" y="740.12" width="40" height="39.75" as="geometry" />
        </mxCell>
        <mxCell id="r_6EXhJBVoEgkkr1cg0a-59" value="" style="shape=cross;whiteSpace=wrap;html=1;rotation=45;fillColor=#a20025;fontColor=#ffffff;strokeColor=#6F0000;" vertex="1" parent="1">
          <mxGeometry x="655.9958828998135" y="740.2508828998135" width="40" height="39.75" as="geometry" />
        </mxCell>
        <mxCell id="r_6EXhJBVoEgkkr1cg0a-62" value="" style="shape=cross;whiteSpace=wrap;html=1;rotation=45;fillColor=#a20025;fontColor=#ffffff;strokeColor=#6F0000;" vertex="1" parent="1">
          <mxGeometry x="533.9958828998135" y="795.2508828998136" width="40" height="39.75" as="geometry" />
        </mxCell>
        <mxCell id="r_6EXhJBVoEgkkr1cg0a-63" value="" style="shape=cross;whiteSpace=wrap;html=1;rotation=45;fillColor=#a20025;fontColor=#ffffff;strokeColor=#6F0000;" vertex="1" parent="1">
          <mxGeometry x="779.9958828998135" y="847.2508828998136" width="40" height="39.75" as="geometry" />
        </mxCell>
      </root>
    </mxGraphModel>
  </diagram>
</mxfile>
